<svg xmlns="http://www.w3.org/2000/svg" viewBox="0 0 1254 1254" fill="none" aria-hidden="true">
  <g class="logo-agent-animated">
    <path fill="#EF6507" opacity="1.000000" stroke="none" 
	d="
M303.984619,621.995667 
	C298.925201,634.716858 288.788086,641.982239 276.198700,644.835815 
	C261.804138,648.098633 247.072754,650.556458 232.363342,651.584656 
	C211.805023,653.021851 191.133301,652.978394 170.506210,653.192078 
	C165.245163,653.246582 159.878815,652.278381 154.717682,651.095703 
	C140.023865,647.728638 129.905685,638.714417 125.898201,624.249207 
	C121.617752,608.798706 121.424118,592.954529 125.598015,577.342285 
	C128.621170,566.034424 135.494644,557.891907 146.786835,553.884644 
	C147.548828,553.614197 148.225403,553.103088 149.161041,552.581726 
	C143.765289,539.723816 140.407867,525.550781 123.502838,520.507080 
	C126.768585,516.428711 129.436279,512.511536 132.771744,509.284546 
	C133.788025,508.301331 137.257339,508.420563 138.545059,509.410858 
	C142.982849,512.823486 147.420609,516.456055 150.975418,520.737915 
	C154.871323,525.430603 159.367523,528.138733 165.319931,528.738953 
	C172.276093,529.440491 179.226471,530.199463 186.456284,531.360107 
	C187.154572,534.441589 187.575928,537.096497 187.610123,539.910889 
	C178.154892,541.921570 169.086853,543.772644 159.921310,545.643616 
	C159.534180,544.865112 159.389282,544.120300 158.937469,543.748352 
	C157.453308,542.526855 155.857788,541.440674 154.305054,540.302490 
	C153.637390,542.110718 152.753601,543.873779 152.364120,545.740051 
	C151.990906,547.528442 152.130829,549.423889 152.018707,551.844727 
	C174.119858,544.479187 196.685745,540.958069 219.956299,538.848511 
	C226.062943,539.177917 227.500656,541.116577 227.586212,549.225159 
	C215.773987,550.548889 204.260742,551.194214 192.955627,553.084351 
	C180.681702,555.136536 168.449768,557.811096 156.478119,561.198792 
	C143.733795,564.805054 136.021454,573.781433 135.063599,587.158203 
	C134.414185,596.227600 134.291794,605.537476 135.586456,614.501038 
	C138.255081,632.977295 149.199402,642.860718 167.843826,643.933960 
	C181.447495,644.717102 195.179825,645.199097 208.745377,644.250366 
	C228.455765,642.872009 248.169083,640.734436 267.688690,637.687622 
	C282.799591,635.328857 293.320770,626.330933 297.839294,610.993225 
	C299.457642,611.802185 301.383057,612.338562 301.837524,613.467285 
	C302.922363,616.161438 303.313416,619.134949 303.984619,621.995667 
z"/>
    <path fill="#E76209" opacity="1.000000" stroke="none" 
	d="
M158.974915,666.020386 
	C164.440475,667.690186 169.890823,669.411987 175.375381,671.016968 
	C182.881454,673.213562 190.443115,675.223938 197.926163,677.494629 
	C205.496475,679.791626 211.776154,683.953430 215.919037,690.903748 
	C216.344147,691.616821 216.630371,692.412659 217.234161,693.717041 
	C218.852188,691.551941 219.684662,690.574890 220.366882,689.502258 
	C223.959381,683.853333 228.664078,679.317810 234.981094,677.118164 
	C255.239761,670.064148 275.583160,663.251709 295.931580,656.458923 
	C299.189880,655.371216 300.142273,656.238586 302.821930,661.320435 
	C294.519897,663.562988 286.141449,665.451416 278.013031,668.105713 
	C264.256134,672.597961 250.603882,677.429688 237.028351,682.445496 
	C233.506195,683.746826 230.431870,686.260193 225.999710,688.904175 
	C228.166321,689.525024 228.705276,689.876038 228.979721,689.730042 
	C249.577591,678.770935 271.850525,672.613586 294.290710,666.957214 
	C298.963623,665.779358 303.678741,664.627625 308.444977,663.998596 
	C313.998077,663.265686 316.469666,665.671753 315.559692,671.207581 
	C313.615295,683.036438 311.321472,694.811035 308.925781,706.557922 
	C308.668823,707.817993 306.793121,708.747925 305.668335,709.830994 
	C305.289825,709.510071 304.911316,709.189148 304.532806,708.868225 
	C306.587891,695.986084 308.643005,683.103943 310.859283,669.211304 
	C282.476257,674.601685 256.287231,683.387512 230.470581,693.964478 
	C229.423218,692.493408 228.515396,691.218262 227.632095,689.977600 
	C227.109070,690.221680 226.610107,690.301697 226.556122,690.501831 
	C224.826630,696.912598 217.764053,700.008179 211.770737,696.727295 
	C210.764069,696.176208 210.325974,694.438110 209.813019,693.172363 
	C209.216812,691.701355 208.827530,690.146545 207.780212,688.086792 
	C206.335510,687.252441 205.459015,686.959412 204.582504,686.666382 
	C204.434204,686.961487 204.285904,687.256531 204.137604,687.551575 
	C204.933990,688.201355 205.730377,688.851135 206.526749,689.500916 
	C206.064270,691.100281 205.601776,692.699707 205.343979,694.669556 
	C205.548660,695.040039 205.606079,695.024780 205.606079,695.024780 
	C199.705612,692.759216 193.959442,689.888062 187.876633,688.338074 
	C167.097137,683.043335 146.206329,678.183289 125.336296,673.249146 
	C123.133797,672.728394 120.787964,672.813782 117.795036,672.556702 
	C120.128883,682.465149 122.326683,691.769348 124.509659,701.077026 
	C125.383720,704.803772 126.353836,708.516296 126.993660,712.283936 
	C127.159920,713.263000 126.247818,714.425110 125.831024,715.503174 
	C124.751076,714.798706 122.937546,714.282349 122.701469,713.361572 
	C119.271515,699.982788 115.854637,686.593262 112.894592,673.105469 
	C111.902817,668.586243 114.759811,665.972168 119.905045,666.625732 
	C127.148399,667.545837 134.411484,668.763794 141.468842,670.608948 
	C161.577972,675.866638 181.586243,681.510010 201.641327,686.975403 
	C202.217422,687.132385 202.873642,686.995239 203.653091,686.486938 
	C196.094070,681.116455 187.133575,679.176392 178.524628,676.590759 
	C169.460754,673.868408 160.199081,671.782715 150.979401,669.607239 
	C141.961609,667.479370 132.887741,665.589111 123.522003,663.524841 
	C125.341125,658.566040 128.398132,657.223145 132.984726,658.647461 
	C141.394470,661.259033 149.832916,663.778320 158.625336,666.203491 
	C158.991272,666.070923 158.974915,666.020325 158.974915,666.020386 
z"/>
    <path fill="#EF6507" opacity="1.000000" stroke="none" 
	d="
M177.013885,527.643433 
	C164.013489,527.547974 153.555420,523.169922 147.241669,510.911652 
	C145.706924,507.931885 142.693100,505.713928 139.417557,502.109222 
	C145.383499,498.801697 150.688049,495.097107 156.567001,493.012207 
	C158.649551,492.273651 162.198730,495.363892 164.952301,496.928101 
	C166.907639,498.038818 168.651657,499.521484 170.489990,500.838165 
	C171.000305,500.306213 171.510620,499.774292 172.020935,499.242340 
	C169.749405,496.057404 167.477875,492.872467 164.950455,489.328735 
	C181.522736,483.704987 198.129211,481.191742 215.361420,482.233765 
	C214.059479,487.298187 213.266373,492.295654 211.021774,496.522308 
	C207.905212,502.390869 207.627899,508.213989 209.333145,514.210938 
	C210.794739,519.351013 208.393265,522.557983 204.331863,524.134033 
	C198.580658,526.365845 192.661118,528.138306 186.106873,526.428650 
	C183.367859,525.714233 180.062012,527.172852 177.013885,527.643433 
M174.937500,502.462036 
	C175.855438,505.397736 177.756119,505.739624 179.699661,503.745331 
	C180.395905,503.030884 180.507584,500.556946 179.869751,499.944397 
	C177.489319,497.658386 176.128754,499.589996 174.937500,502.462036 
z"/>
    <path fill="#F26F14" opacity="1.000000" stroke="none" 
	d="
M187.997299,539.751404 
	C187.575928,537.096497 187.154572,534.441589 186.816528,531.524414 
	C217.172165,534.051819 247.518829,536.224487 277.689148,539.860474 
	C296.022003,542.069824 304.422699,550.640808 306.791351,568.857300 
	C308.512665,582.095154 308.002625,595.665283 307.847748,609.079834 
	C307.799835,613.229187 305.650513,617.354248 304.223999,621.743042 
	C303.313416,619.134949 302.922363,616.161438 301.837524,613.467285 
	C301.383057,612.338562 299.457642,611.802185 297.822296,610.579468 
	C299.355286,596.880188 299.464081,583.631714 296.589050,570.457825 
	C294.431824,560.572998 288.347412,554.295837 278.644440,551.707397 
	C274.973694,550.728210 271.139465,549.995483 267.356110,549.871521 
	C254.235306,549.441711 241.104111,549.328613 227.976883,549.095093 
	C227.500656,541.116577 226.062943,539.177917 219.637146,538.669556 
	C208.577332,538.884827 198.287323,539.318115 187.997299,539.751404 
z"/>
    <path fill="#F26F14" opacity="1.000000" stroke="none" 
	d="
M177.434967,527.804077 
	C180.062012,527.172852 183.367859,525.714233 186.106873,526.428650 
	C192.661118,528.138306 198.580658,526.365845 204.331863,524.134033 
	C208.393265,522.557983 210.794739,519.351013 209.333145,514.210938 
	C207.627899,508.213989 207.905212,502.390869 211.021774,496.522308 
	C213.266373,492.295654 214.059479,487.298187 215.729202,482.372498 
	C221.047333,482.522064 226.136292,482.943695 231.748047,483.808167 
	C232.918976,484.475128 233.567078,484.699249 234.215195,484.923370 
	C234.612717,484.932098 235.010254,484.940857 235.934662,485.253662 
	C238.454926,486.343658 240.390915,487.536896 242.454086,487.827606 
	C246.323669,488.372833 248.184189,489.961426 248.349792,494.150024 
	C248.491333,497.729797 249.444778,501.352142 250.519806,504.806061 
	C253.521515,514.449890 249.111526,521.006592 238.965195,520.833862 
	C239.645264,524.736389 243.783340,530.012390 235.938736,531.141846 
	C234.877625,531.172363 233.816513,531.202942 232.227539,530.908447 
	C231.147614,530.683533 230.595566,530.783691 230.043518,530.883789 
	C225.983994,530.773621 221.924484,530.663391 217.250458,530.128845 
	C214.436630,529.761292 212.237305,529.818115 210.037994,529.874939 
	C199.310669,529.238220 188.583359,528.601501 177.434967,527.804077 
z"/>
    <path fill="#F3781D" opacity="1.000000" stroke="none" 
	d="
M236.289185,531.360352 
	C243.783340,530.012390 239.645264,524.736389 238.965195,520.833862 
	C249.111526,521.006592 253.521515,514.449890 250.519806,504.806061 
	C249.444778,501.352142 248.491333,497.729797 248.349792,494.150024 
	C248.184189,489.961426 246.323669,488.372833 242.454086,487.827606 
	C240.390915,487.536896 238.454926,486.343658 236.231369,485.285889 
	C244.890106,487.838776 254.311890,489.595215 262.557953,493.708618 
	C280.201080,502.509644 291.466034,517.309082 297.631042,535.955688 
	C298.496796,538.574280 298.717346,541.406311 299.253906,544.231018 
	C292.869812,541.705505 287.145844,538.368652 281.015259,537.239563 
	C268.307037,534.899048 255.384171,533.720825 242.545975,532.092896 
	C240.586975,531.844421 238.608902,531.746460 236.289185,531.360352 
z"/>
    <path fill="#E65104" opacity="1.000000" stroke="none" 
	d="
M329.788635,740.833496 
	C325.365509,762.280518 302.653778,773.383545 284.898834,762.279358 
	C296.353668,762.956055 300.981598,755.171448 304.854492,747.323792 
	C308.136902,740.672668 310.387360,733.449158 312.458221,726.294739 
	C313.277893,723.462952 312.344360,720.134216 312.276886,717.030334 
	C312.246704,715.641968 311.860138,713.627136 312.580688,713.021851 
	C313.428406,712.309570 315.726959,712.231689 316.653992,712.903381 
	C319.935333,715.280823 323.526642,717.641235 325.847198,720.843750 
	C330.005066,726.581848 330.664459,733.448792 329.788635,740.833496 
z"/>
    <path fill="#E65104" opacity="1.000000" stroke="none" 
	d="
M137.744324,770.755615 
	C126.779922,772.536804 117.803040,770.227051 111.726952,760.671204 
	C105.085396,750.226013 102.847572,739.245056 107.992462,727.485413 
	C108.579460,726.143677 109.416832,724.663086 110.567223,723.866821 
	C113.151382,722.078064 116.005333,720.679016 118.749481,719.121399 
	C119.406494,721.682190 120.311768,724.207947 120.678696,726.809692 
	C122.530281,739.938354 127.094505,751.966858 135.691391,762.113586 
	C137.974335,764.808105 141.722870,766.260864 145.182205,768.536133 
	C143.026535,769.199646 140.588165,769.950195 137.744324,770.755615 
z"/>
    <path fill="#E65104" opacity="1.000000" stroke="none" 
	d="
M205.340179,695.350586 
	C205.606079,695.024780 205.548660,695.040039 205.519653,695.037842 
	C212.176910,702.303650 220.525040,702.438965 230.957031,694.982239 
	C231.073807,696.926697 231.268600,698.469238 231.243591,700.008240 
	C230.856476,723.815918 230.402023,747.622559 230.076218,771.431030 
	C230.030487,774.772400 229.035950,776.454956 225.523972,775.799927 
	C225.523972,751.583191 225.523972,727.505920 225.523972,703.448975 
	C220.552109,703.448975 215.468491,703.448975 209.262756,703.448975 
	C209.262756,727.641235 209.262756,751.879761 209.262756,776.323120 
	C205.668442,776.511353 203.548965,776.597290 203.605118,773.043762 
	C204.004974,747.737122 204.344254,722.429565 204.720551,697.122498 
	C204.727737,696.638794 204.951553,696.158325 205.340179,695.350586 
z"/>
    <path fill="#E76209" opacity="1.000000" stroke="none" 
	d="
M83.694229,575.438171 
	C84.371536,570.877258 84.487587,566.599548 85.790169,562.720154 
	C87.016243,559.068665 88.991035,555.387451 91.545975,552.533569 
	C94.832932,548.862061 99.322578,549.299744 102.236328,553.322571 
	C104.340286,556.227417 106.091919,559.611145 107.103004,563.045593 
	C111.801277,579.004883 112.380394,595.127563 107.816292,611.240601 
	C105.349312,619.950012 98.926170,621.813293 92.880638,615.027405 
	C89.600624,611.345642 86.848663,606.371826 85.935478,601.584595 
	C84.332619,593.182007 84.326187,584.474854 83.694229,575.438171 
M101.715523,591.332703 
	C100.434425,582.336853 99.349861,573.305054 97.714333,564.374146 
	C97.367264,562.478943 95.009964,560.951965 93.578812,559.255310 
	C92.167633,560.938721 89.729172,562.503906 89.519531,564.325623 
	C88.502800,573.160522 87.645668,582.063721 87.636154,590.943726 
	C87.631325,595.457214 89.163147,600.107117 90.729614,604.431091 
	C91.521233,606.616150 93.935730,608.213379 95.616463,610.076355 
	C97.089752,608.071167 99.231339,606.261047 99.886528,604.016968 
	C100.989197,600.240173 101.147881,596.187744 101.715523,591.332703 
z"/>
    <path fill="#E65104" opacity="1.000000" stroke="none" 
	d="
M106.722778,707.385010 
	C102.979065,709.873901 99.578148,712.190613 96.216530,714.480530 
	C90.279182,700.821289 97.155632,678.436157 109.232941,673.299072 
	C111.457741,683.634949 113.674194,693.932068 115.892021,704.235596 
	C112.678055,705.319702 109.871811,706.266296 106.722778,707.385010 
z"/>
    <path fill="#E65104" opacity="1.000000" stroke="none" 
	d="
M92.692093,742.518982 
	C91.718903,727.831970 99.442795,715.094849 111.788414,710.958374 
	C113.297127,710.452881 115.249741,711.272217 116.996628,711.477539 
	C115.987885,712.739746 115.227959,714.410400 113.931412,715.200073 
	C102.583382,722.111572 97.728271,736.498596 102.402969,750.708374 
	C103.879364,755.196167 106.083481,759.444580 108.194809,764.362061 
	C98.802155,759.828125 94.111717,752.598511 92.692093,742.518982 
z"/>
    <path fill="#EF6507" opacity="1.000000" stroke="none" 
	d="
M125.408363,529.541870 
	C136.974182,531.825256 140.330627,540.914917 143.885239,550.065491 
	C139.058273,553.454895 134.478302,556.670837 130.115097,559.734558 
	C126.899918,553.807251 123.512138,547.832886 120.405327,541.715759 
	C118.929817,538.810608 121.727257,532.064331 125.408363,529.541870 
z"/>
    <path fill="#E65104" opacity="1.000000" stroke="none" 
	d="
M152.034668,726.684570 
	C150.846115,728.126709 149.882034,729.841614 148.531296,730.237549 
	C142.799988,731.917603 136.975754,733.304260 131.141647,734.600952 
	C127.711380,735.363342 125.745872,733.417847 124.959595,730.285400 
	C124.138977,727.016174 123.182320,723.355103 127.232376,721.574890 
	C134.249191,718.490723 141.539871,718.336365 148.559311,721.449707 
	C150.145782,722.153320 150.928543,724.669006 152.034668,726.684570 
z"/>
    <path fill="#E65104" opacity="1.000000" stroke="none" 
	d="
M132.490479,749.585327 
	C129.206909,743.001099 130.046600,741.328003 136.598419,739.398010 
	C141.518112,737.948730 146.236908,735.735046 151.213852,734.603943 
	C153.148972,734.164185 156.270432,735.147949 157.515976,736.616272 
	C158.602432,737.896912 158.571335,741.154175 157.705017,742.865234 
	C155.335541,747.545166 139.329437,752.859131 134.301361,751.056702 
	C133.711975,750.845459 133.253006,750.270325 132.490479,749.585327 
z"/>
    <path fill="#E65104" opacity="1.000000" stroke="none" 
	d="
M301.389771,715.521484 
	C308.785767,717.042114 310.266449,718.686157 309.441498,724.054504 
	C308.682678,728.992493 306.554688,730.783936 301.631378,729.957703 
	C296.571442,729.108643 291.502106,728.092407 286.610626,726.585449 
	C284.940125,726.070801 282.770142,723.900574 282.691345,722.389648 
	C282.607483,720.781555 284.462646,717.945862 285.940430,717.588867 
	C290.834900,716.406738 295.940765,716.099976 301.389771,715.521484 
z"/>
    <path fill="#E65104" opacity="1.000000" stroke="none" 
	d="
M303.871582,737.772217 
	C303.291534,745.673828 300.451172,747.987793 293.370331,746.188110 
	C288.894165,745.050354 284.522888,743.438293 280.193939,741.802429 
	C276.636566,740.458069 274.746063,737.759277 276.164093,733.962219 
	C277.567810,730.203613 280.717255,729.347961 284.326691,730.576965 
	C290.824738,732.789246 297.270691,735.154541 303.871582,737.772217 
z"/>
    <path fill="#E76209" opacity="1.000000" stroke="none" 
	d="
M107.506058,543.799805 
	C116.600555,547.621216 122.730118,561.509094 119.969246,570.603149 
	C118.298752,576.105652 117.160889,581.769775 115.659111,587.867249 
	C113.104973,572.837769 115.217102,556.307312 99.271194,545.663574 
	C102.301994,544.932495 104.723358,544.348389 107.506058,543.799805 
z"/>
    <path fill="#F26F14" opacity="1.000000" stroke="none" 
	d="
M306.244202,555.138184 
	C304.263672,550.350342 302.442505,545.915710 300.621368,541.481140 
	C301.208160,541.138611 301.794952,540.796082 302.381744,540.453552 
	C309.085571,542.208618 312.512634,547.280518 314.566833,553.656738 
	C318.675018,566.408508 317.604767,577.621460 312.374664,582.108276 
	C310.427826,573.430054 308.415710,564.460754 306.244202,555.138184 
z"/>
    <path fill="#E65104" opacity="1.000000" stroke="none" 
	d="
M272.081635,750.759521 
	C273.278870,745.020203 274.527863,744.440613 279.513458,746.356445 
	C283.665344,747.951965 287.969543,749.150574 292.124481,750.738770 
	C293.506195,751.267090 295.561371,752.378967 295.645966,753.366455 
	C295.753845,754.626038 294.457153,756.391113 293.276917,757.310852 
	C287.332520,761.943298 275.695526,758.466614 272.081635,750.759521 
z"/>
    <path fill="#E65104" opacity="1.000000" stroke="none" 
	d="
M160.981461,756.738770 
	C157.066971,761.160095 152.564240,763.935974 146.927658,763.865723 
	C144.768158,763.838806 142.325165,762.970398 140.540070,761.726624 
	C137.454529,759.576721 137.984009,757.396057 141.466797,756.030334 
	C145.939865,754.276123 150.340164,752.324890 154.863358,750.715942 
	C156.549622,750.116089 159.754761,749.559998 160.082413,750.165771 
	C161.035126,751.927246 160.882446,754.286682 160.981461,756.738770 
z"/>
    <path fill="#E65104" opacity="1.000000" stroke="none" 
	d="
M106.117447,626.877075 
	C105.241447,625.480652 104.602203,624.355591 104.452789,624.092590 
	C108.259132,619.393433 111.672768,615.179138 114.930542,611.157227 
	C116.387199,617.432434 117.975784,624.276062 119.632149,631.411621 
	C114.373863,632.236267 110.229057,630.136597 106.117447,626.877075 
z"/>
    <path fill="#E65104" opacity="1.000000" stroke="none" 
	d="
M127.653687,648.282471 
	C124.253708,645.507141 121.173012,642.893677 117.701073,639.948303 
	C122.388657,637.742249 125.064888,638.172729 127.292900,642.017517 
	C129.002960,644.968445 131.624283,647.391235 134.643051,651.011658 
	C131.813889,649.922729 129.893433,649.183594 127.653687,648.282471 
z"/>
    <path fill="#E76209" opacity="1.000000" stroke="none" 
	d="
M277.892944,657.731140 
	C275.353973,658.990906 273.017242,659.921936 270.425354,660.954590 
	C270.110413,652.791077 271.589417,651.439697 279.012970,652.701294 
	C278.705963,654.273804 278.400574,655.838074 277.892944,657.731140 
z"/>
    <path fill="#F26F14" opacity="1.000000" stroke="none" 
	d="
M159.015488,666.082092 
	C158.973312,664.241699 158.679718,662.348389 159.006638,660.569092 
	C159.084503,660.145264 161.520493,659.561890 162.368774,660.008118 
	C163.713104,660.715393 164.633453,662.228638 165.733185,663.400818 
	C164.472321,664.060242 163.257889,664.848083 161.931946,665.327637 
	C161.216248,665.586426 160.309830,665.317993 159.232178,665.653809 
	C158.974915,666.020325 158.991272,666.070923 159.015488,666.082092 
z"/>
    <path fill="#F3781D" opacity="1.000000" stroke="none" 
	d="
M210.389221,530.018494 
	C212.237305,529.818115 214.436630,529.761292 216.805817,529.988831 
	C214.897278,530.236145 212.818863,530.199097 210.389221,530.018494 
z"/>
    <path fill="#F3781D" opacity="1.000000" stroke="none" 
	d="
M230.214798,531.003296 
	C230.595566,530.783691 231.147614,530.683533 231.846252,530.784363 
	C231.457260,531.031128 230.921677,531.076965 230.214798,531.003296 
z"/>
    <path fill="#F3781D" opacity="1.000000" stroke="none" 
	d="
M234.100189,484.667084 
	C233.567078,484.699249 232.918976,484.475128 232.148819,484.011078 
	C232.679565,483.984375 233.332382,484.197601 234.100189,484.667084 
z"/>
    <path fill="#030100" opacity="1.000000" stroke="none" 
	d="
M227.586212,549.225159 
	C241.104111,549.328613 254.235306,549.441711 267.356110,549.871521 
	C271.139465,549.995483 274.973694,550.728210 278.644440,551.707397 
	C288.347412,554.295837 294.431824,560.572998 296.589050,570.457825 
	C299.464081,583.631714 299.355286,596.880188 297.460663,610.576172 
	C293.320770,626.330933 282.799591,635.328857 267.688690,637.687622 
	C248.169083,640.734436 228.455765,642.872009 208.745377,644.250366 
	C195.179825,645.199097 181.447495,644.717102 167.843826,643.933960 
	C149.199402,642.860718 138.255081,632.977295 135.586456,614.501038 
	C134.291794,605.537476 134.414185,596.227600 135.063599,587.158203 
	C136.021454,573.781433 143.733795,564.805054 156.478119,561.198792 
	C168.449768,557.811096 180.681702,555.136536 192.955627,553.084351 
	C204.260742,551.194214 215.773987,550.548889 227.586212,549.225159 
M178.483948,582.780457 
	C165.870148,586.608765 160.079666,598.880859 165.515015,610.266479 
	C169.622437,618.870544 178.923431,622.866394 187.627548,619.766235 
	C196.295349,616.679016 201.682587,606.362915 199.504761,597.022522 
	C197.234375,587.285217 189.213379,581.585571 178.483948,582.780457 
M270.303497,580.924011 
	C261.982849,577.214539 253.529556,579.193115 248.499176,586.027405 
	C243.289719,593.105103 243.625488,603.795776 249.255661,610.110840 
	C255.922836,617.589050 267.017731,617.820251 274.003967,610.626465 
	C282.055847,602.335327 280.695129,589.216675 270.303497,580.924011 
z"/>
    <path fill="#030100" opacity="1.000000" stroke="none" 
	d="
M187.610123,539.910889 
	C198.287323,539.318115 208.577332,538.884827 219.186508,538.630493 
	C196.685745,540.958069 174.119858,544.479187 152.018707,551.844727 
	C152.130829,549.423889 151.990906,547.528442 152.364120,545.740051 
	C152.753601,543.873779 153.637390,542.110718 154.305054,540.302490 
	C155.857788,541.440674 157.453308,542.526855 158.937469,543.748352 
	C159.389282,544.120300 159.534180,544.865112 159.921310,545.643616 
	C169.086853,543.772644 178.154892,541.921570 187.610123,539.910889 
z"/>
    <path fill="#000000" opacity="1.000000" stroke="none" 
	d="
M206.824112,689.179016 
	C205.730377,688.851135 204.933990,688.201355 204.137604,687.551575 
	C204.285904,687.256531 204.434204,686.961487 204.582504,686.666382 
	C205.459015,686.959412 206.335510,687.252441 207.441254,687.859741 
	C207.487457,688.401733 207.304459,688.629456 206.824112,689.179016 
z"/>
    <path fill="#030100" opacity="1.000000" stroke="none" 
	d="
M174.999176,502.085724 
	C176.128754,499.589996 177.489319,497.658386 179.869751,499.944397 
	C180.507584,500.556946 180.395905,503.030884 179.699661,503.745331 
	C177.756119,505.739624 175.855438,505.397736 174.999176,502.085724 
z"/>
    <path fill="#030100" opacity="1.000000" stroke="none" 
	d="
M101.709579,591.791992 
	C101.147881,596.187744 100.989197,600.240173 99.886528,604.016968 
	C99.231339,606.261047 97.089752,608.071167 95.616455,610.076355 
	C93.935730,608.213379 91.521233,606.616150 90.729614,604.431091 
	C89.163147,600.107117 87.631325,595.457214 87.636154,590.943726 
	C87.645668,582.063721 88.502800,573.160522 89.519531,564.325623 
	C89.729172,562.503906 92.167633,560.938721 93.578819,559.255310 
	C95.009964,560.951965 97.367264,562.478943 97.714333,564.374146 
	C99.349861,573.305054 100.434425,582.336853 101.709579,591.791992 
z"/>
    <path fill="#F26F14" opacity="1.000000" stroke="none" 
	d="
M178.877167,582.712280 
	C189.213379,581.585571 197.234375,587.285217 199.504761,597.022522 
	C201.682587,606.362915 196.295349,616.679016 187.627548,619.766235 
	C178.923431,622.866394 169.622437,618.870544 165.515015,610.266479 
	C160.079666,598.880859 165.870148,586.608765 178.877167,582.712280 
z"/>
    <path fill="#F26F14" opacity="1.000000" stroke="none" 
	d="
M270.632996,581.113647 
	C280.695129,589.216675 282.055847,602.335327 274.003967,610.626465 
	C267.017731,617.820251 255.922836,617.589050 249.255661,610.110840 
	C243.625488,603.795776 243.289719,593.105103 248.499176,586.027405 
	C253.529556,579.193115 261.982849,577.214539 270.632996,581.113647 
z"/>
  </g>
  <g class="logo-wordmark">
    <path fill="#E7E1DA" opacity="1.000000" stroke="none" 
	d="
M384.540222,642.494385 
	C375.624054,636.988892 371.609406,630.942505 371.070709,622.168579 
	C375.927185,621.467224 380.812134,620.761719 385.605804,620.069397 
	C391.955322,632.546082 401.769043,636.843811 414.462891,632.906738 
	C420.095428,631.159851 423.772430,627.214905 424.038513,622.633362 
	C424.350281,617.265808 421.828766,613.255737 415.634399,611.072144 
	C408.903778,608.699524 401.780090,607.421265 395.097321,604.939941 
	C389.881775,603.003418 384.282166,600.843689 380.250977,597.225769 
	C370.635376,588.595947 370.894562,572.473083 379.928925,562.971069 
	C391.444702,550.859192 416.941071,549.735657 429.603210,560.681824 
	C434.075928,564.548462 436.913513,569.188782 437.771820,575.671997 
	C433.001740,576.460754 428.317108,577.235413 423.721283,577.995361 
	C417.996216,566.870972 409.704285,565.065430 398.856476,567.694702 
	C393.064209,569.098694 389.884125,573.025696 389.436615,578.036926 
	C388.972992,583.228638 391.271149,587.218628 397.154755,589.541077 
	C402.389954,591.607422 407.957031,592.828674 413.367188,594.457520 
	C417.187622,595.607788 421.101288,596.544250 424.782532,598.044434 
	C442.493164,605.261719 446.174225,627.509827 431.142303,639.394409 
	C416.786072,650.744812 400.839172,649.316284 384.540222,642.494385 
z"/>
    <path fill="#EAE5DE" opacity="1.000000" stroke="none" 
	d="
M846.640259,617.443604 
	C845.787292,604.683350 848.190063,593.464783 857.912109,584.882446 
	C869.559937,574.600098 885.710571,575.446228 897.073364,587.608032 
	C897.073364,576.084656 897.073364,565.316772 897.073364,554.318542 
	C902.741638,554.318542 907.671143,554.318542 912.908325,554.318542 
	C912.908325,584.795959 912.908325,615.178040 912.908325,645.603149 
	C907.776245,645.603149 902.834229,645.603149 897.507141,645.603149 
	C897.507141,642.766785 897.507141,640.167480 897.507141,637.610046 
	C896.828857,637.514465 896.386719,637.330078 896.270691,637.453125 
	C881.862671,652.729919 859.112854,649.305298 850.171448,630.286743 
	C848.369568,626.454224 847.820007,622.032959 846.640259,617.443604 
M896.575195,603.331726 
	C892.826660,594.477295 886.789917,590.260864 878.842773,590.946350 
	C871.339294,591.593628 864.954102,597.165161 863.435608,605.721497 
	C862.586548,610.505859 862.685303,615.733582 863.642700,620.503357 
	C865.367249,629.094788 872.256836,634.073425 880.484314,633.797668 
	C889.386841,633.499451 895.973694,627.997498 897.096924,618.954590 
	C897.700745,614.093262 896.954834,609.064270 896.575195,603.331726 
z"/>
    <path fill="#EAE5DE" opacity="1.000000" stroke="none" 
	d="
M1060.533447,557.546631 
	C1077.102661,551.184326 1092.484985,551.552856 1106.143921,563.638428 
	C1110.862061,567.813049 1114.009644,573.029175 1114.957275,580.228699 
	C1109.903687,581.011963 1104.934692,581.782043 1100.036499,582.541199 
	C1093.659668,566.773865 1077.066284,563.855713 1065.279907,572.014771 
	C1059.270630,576.174622 1056.599365,582.517639 1055.087402,589.224731 
	C1052.886353,598.989380 1053.255737,608.777100 1057.162109,618.146545 
	C1060.981812,627.308228 1068.125366,632.291687 1077.919434,632.893494 
	C1087.359375,633.473572 1094.102417,629.087646 1098.357422,620.566711 
	C1099.017334,619.245239 1101.155029,618.046753 1102.709961,617.906372 
	C1106.802246,617.536682 1110.949829,617.781433 1115.000977,617.781433 
	C1115.838989,627.122803 1105.107788,640.260925 1094.532715,644.206360 
	C1070.947998,653.005615 1043.487671,642.449951 1038.183350,610.822144 
	C1035.959961,597.565063 1037.411865,584.569519 1044.576050,572.733887 
	C1048.438843,566.352478 1053.415527,561.080322 1060.533447,557.546631 
z"/>
    <path fill="#E7E1DA" opacity="1.000000" stroke="none" 
	d="
M629.629761,672.725464 
	C623.823425,672.823669 618.410828,672.823669 612.508789,672.823669 
	C613.153442,667.820129 613.657104,663.911133 614.191223,659.765503 
	C615.749512,659.879578 617.039673,659.992004 618.332031,660.065796 
	C629.498230,660.703735 636.617554,650.961731 632.451355,640.628235 
	C624.318237,620.455750 616.113708,600.312012 607.507263,579.092529 
	C613.166870,579.092529 618.062683,578.845093 622.897827,579.276672 
	C624.024536,579.377258 625.335571,581.640381 625.900330,583.155151 
	C631.411865,597.936890 636.783020,612.771057 642.486084,628.389832 
	C646.119446,618.241089 649.501404,608.816162 652.867188,599.385437 
	C654.878662,593.749451 657.000000,588.147034 658.800293,582.443787 
	C659.601868,579.904419 660.912476,579.055725 663.485901,579.167969 
	C667.610352,579.347961 671.748352,579.216248 676.615417,579.216248 
	C673.315308,587.669495 670.292236,595.533997 667.179199,603.362610 
	C660.114380,621.128540 653.070801,638.903320 645.882935,656.619507 
	C642.851257,664.091858 638.528564,670.482727 629.629761,672.725464 
z"/>
    <path fill="#E7E1DA" opacity="1.000000" stroke="none" 
	d="
M498.684265,587.675903 
	C512.974609,574.630005 534.476318,574.758301 547.177246,587.704163 
	C559.572571,600.338501 559.810425,624.574097 547.289856,637.384338 
	C537.170288,647.738159 524.585571,649.551392 511.315582,645.333313 
	C498.781311,641.349060 491.475250,632.231384 489.827362,619.124084 
	C488.382812,607.634644 490.369049,596.891785 498.684265,587.675903 
M523.464539,590.911926 
	C514.741211,591.509094 509.181763,595.544922 506.650787,603.346130 
	C504.524506,609.900024 504.662964,616.488831 507.070496,622.948730 
	C509.845856,630.395752 515.766541,634.309021 523.633972,634.085022 
	C531.120667,633.871826 537.752380,629.289124 539.195374,621.697998 
	C540.282776,615.977417 540.411377,609.726990 539.323730,604.025818 
	C537.857361,596.339233 532.457825,591.699036 523.464539,590.911926 
z"/>
    <path fill="#E7E1DA" opacity="1.000000" stroke="none" 
	d="
M1151.236938,578.111694 
	C1183.583252,576.257263 1194.699463,606.821167 1184.229980,629.395081 
	C1177.147827,644.665833 1159.435669,650.944946 1141.995850,645.094910 
	C1127.237061,640.144287 1118.433594,623.457275 1121.460938,606.170898 
	C1124.275391,590.100342 1133.953979,580.847229 1151.236938,578.111694 
M1139.948364,599.643433 
	C1135.791260,606.756897 1136.070923,614.383789 1138.076416,621.886719 
	C1139.918579,628.778564 1145.119507,632.737915 1152.019409,633.841980 
	C1158.984497,634.956482 1164.828491,632.609131 1168.678955,626.405273 
	C1173.083374,619.308960 1173.572998,611.691528 1171.117798,603.874268 
	C1168.977661,597.060120 1164.785889,592.179321 1157.325317,591.114990 
	C1150.025513,590.073669 1144.334106,592.801147 1139.948364,599.643433 
z"/>
    <path fill="#E7E1DA" opacity="1.000000" stroke="none" 
	d="
M449.249329,591.764160 
	C446.787659,591.761658 444.819733,591.761658 442.526855,591.761658 
	C442.526855,587.551758 442.526855,583.810974 442.526855,579.471130 
	C445.685486,579.311707 448.929077,579.147949 452.660248,578.959595 
	C452.660248,573.091309 452.660248,567.367188 452.660248,561.327026 
	C457.895569,561.327026 462.638824,561.327026 467.859497,561.327026 
	C467.859497,567.105591 467.859497,572.850769 467.859497,579.078979 
	C473.584290,579.078979 478.848450,579.078979 484.429688,579.078979 
	C484.429688,583.327942 484.429688,587.098572 484.429688,591.570007 
	C479.206787,591.570007 473.827393,591.570007 468.189697,591.570007 
	C468.189697,603.561096 468.065918,614.866455 468.244446,626.167114 
	C468.327759,631.438660 470.725952,633.584045 476.118225,633.720337 
	C478.752502,633.786926 481.398590,633.386719 484.040649,633.196960 
	C484.221893,633.471924 484.539337,633.737000 484.562012,634.025208 
	C485.516418,646.157288 484.168671,647.512573 471.826599,646.878357 
	C459.144592,646.226685 453.079681,640.057434 452.888733,627.275452 
	C452.729523,616.619934 452.787476,605.960327 452.839539,595.302979 
	C452.850555,593.044739 452.720520,591.250000 449.249329,591.764160 
z"/>
    <path fill="#E7E1DA" opacity="1.000000" stroke="none" 
	d="
M701.765503,615.057251 
	C708.698059,632.196472 725.711792,635.974426 738.193359,631.132141 
	C746.489685,627.913574 752.594299,618.929504 751.417725,610.931885 
	C747.934082,610.931885 744.336548,610.931885 740.739014,610.931885 
	C737.093689,610.931885 733.448364,610.931885 729.419739,610.931885 
	C729.419739,606.339478 729.419739,601.974487 729.419739,597.287231 
	C742.173706,597.287231 754.739868,597.287231 767.307373,597.285645 
	C772.160339,626.124695 757.599426,646.307251 728.408997,647.151001 
	C719.892639,647.397156 711.888428,645.726440 704.166626,640.868164 
	C702.910217,639.853210 701.963013,639.422791 701.015747,638.992432 
	C701.015747,638.992432 701.000000,639.002441 700.956177,638.652832 
	C699.796021,636.888672 698.651978,635.494934 697.569092,634.055176 
	C694.990295,630.626892 692.404480,627.203064 689.889587,623.728027 
	C687.624146,620.597717 687.726440,618.325134 691.741394,616.391418 
	C694.429810,615.096497 696.534729,612.590149 698.531067,610.932739 
	C699.323486,611.943237 700.544495,613.500244 701.765503,615.057251 
z"/>
    <path fill="#EAE5DE" opacity="1.000000" stroke="none" 
	d="
M701.735107,614.644531 
	C700.544495,613.500244 699.323486,611.943237 698.531067,610.932739 
	C696.534729,612.590149 694.429810,615.096497 691.741394,616.391418 
	C687.726440,618.325134 687.624146,620.597717 689.889587,623.728027 
	C692.404480,627.203064 694.990295,630.626892 697.569092,634.055176 
	C698.651978,635.494934 699.796021,636.888672 700.959290,638.644897 
	C690.469116,632.170593 685.379089,621.937134 683.600891,610.002441 
	C680.987427,592.460754 684.202087,576.464294 697.810364,563.866028 
	C714.087463,548.797058 743.747437,549.433044 758.657349,565.452698 
	C761.980896,569.023682 763.872070,573.927795 766.911194,579.039795 
	C760.306396,580.271545 755.315369,581.202393 750.445496,582.110596 
	C744.065918,569.881165 735.599792,565.531799 723.025330,567.748352 
	C710.701904,569.920654 701.553833,579.700073 700.397583,593.478210 
	C699.824158,600.311340 701.206909,607.308716 701.735107,614.644531 
z"/>
    <path fill="#E7E1DA" opacity="1.000000" stroke="none" 
	d="
M792.114563,579.753906 
	C792.383118,583.069885 792.383118,586.029663 792.383118,590.567139 
	C798.712219,581.049194 805.946594,576.114502 816.712769,578.224121 
	C816.712769,583.114136 816.712769,587.994385 816.712769,593.078613 
	C814.573486,593.078613 812.613892,593.035645 810.656677,593.085693 
	C799.424622,593.372803 792.767090,600.118286 792.712708,611.356140 
	C792.667603,620.674683 792.727051,629.993774 792.739075,639.312622 
	C792.741577,641.269043 792.739380,643.225403 792.739380,645.486450 
	C787.295349,645.486450 782.375916,645.486450 777.145752,645.486450 
	C777.145752,623.579712 777.145752,601.701111 777.145752,579.397644 
	C782.037598,579.397644 786.941772,579.397644 792.114563,579.753906 
z"/>
    <path fill="#E76209" opacity="1.000000" stroke="none" 
	d="
M993.174072,615.695068 
	C993.930298,616.315735 994.686462,616.936279 996.426636,618.364380 
	C998.170166,612.823853 999.763123,607.761719 1001.398132,602.566162 
	C1005.331909,602.566162 1009.432129,602.566162 1013.803894,602.566162 
	C1013.797729,612.401245 1009.479065,620.418396 1004.703491,628.633667 
	C1009.329590,634.072815 1013.934753,639.487427 1019.030884,645.479309 
	C1009.781555,645.868164 1000.682312,648.536072 995.524414,637.727722 
	C993.532837,639.055115 992.108887,640.117676 990.582336,641.003540 
	C978.547791,647.987427 966.180603,649.598816 953.550964,642.755127 
	C948.260315,639.888245 944.489624,635.496582 943.032349,629.088135 
	C943.580505,625.152893 943.588928,621.705811 944.084167,618.330078 
	C944.396545,616.200989 945.436951,614.178772 946.150757,612.108582 
	C947.011658,612.243652 947.872620,612.378723 948.733521,612.513794 
	C948.733521,614.869873 948.380920,617.298523 948.845642,619.559143 
	C949.213928,621.350464 950.232910,623.357056 951.603394,624.500549 
	C953.141968,625.784363 955.400208,626.205627 957.565063,627.231873 
	C965.431824,636.466187 980.932556,636.524231 986.880615,627.213013 
	C989.092346,623.135803 991.133240,619.415466 993.174072,615.695068 
z"/>
    <path fill="#E7E1DA" opacity="1.000000" stroke="none" 
	d="
M578.000183,645.520081 
	C574.632141,645.632629 571.264038,645.745178 567.362061,645.369995 
	C566.557190,643.757996 566.052979,642.634399 566.050049,641.509521 
	C566.000854,622.536804 566.051208,603.563721 565.974731,584.591187 
	C565.962769,581.622070 567.368408,581.037415 569.965698,580.942200 
	C573.012756,580.830383 576.041138,580.208496 579.077576,579.807800 
	C579.494202,583.063782 579.910828,586.319763 580.399048,590.135925 
	C585.596191,580.663696 593.157227,576.760925 603.736938,578.395874 
	C603.736938,583.388977 603.736938,588.130859 603.736938,593.420349 
	C594.544312,592.785583 585.742981,593.538330 580.717712,603.735901 
	C580.201660,604.734253 580.149231,605.385437 580.096802,606.036682 
	C580.047974,606.804749 579.999023,607.572754 579.613525,608.417725 
	C579.131165,608.414795 578.992737,608.297180 578.837341,608.267212 
	C578.718201,608.244263 578.468994,608.319031 578.462708,608.372131 
	C578.292297,609.819031 578.019836,611.268372 578.015198,612.718140 
	C577.980164,623.652039 577.998535,634.586060 578.000183,645.520081 
z"/>
    <path fill="#EAE5DE" opacity="1.000000" stroke="none" 
	d="
M838.143127,641.513184 
	C838.056763,643.102173 837.973450,644.239502 837.875183,645.580627 
	C832.895325,645.580627 828.102417,645.580627 822.903076,645.580627 
	C822.903076,623.769165 822.903076,601.939514 822.903076,579.928772 
	C827.889526,579.928772 832.821045,579.928772 838.146118,579.928772 
	C838.146118,600.506042 838.146118,620.783752 838.143127,641.513184 
z"/>
    <path fill="#F3781D" opacity="1.000000" stroke="none" 
	d="
M960.342834,594.979187 
	C957.883118,590.501953 954.815613,586.244385 953.100281,581.498108 
	C950.233276,573.565125 953.223999,565.110474 959.726379,560.120911 
	C966.966492,554.565247 979.917175,554.082092 987.554199,559.082825 
	C994.823547,563.842773 998.155518,571.233215 995.607605,579.808167 
	C994.399475,583.874084 991.089783,587.315491 988.389954,590.807312 
	C986.761658,586.975769 984.860901,584.062317 980.661987,583.474670 
	C981.163879,582.373047 981.578674,581.656677 981.923401,580.908020 
	C984.082092,576.221130 983.539368,571.502197 980.296631,569.073120 
	C976.751892,566.417908 972.885193,566.193176 969.139709,568.665955 
	C965.420837,571.121216 964.304138,575.927368 966.619141,580.723633 
	C968.045837,583.679565 970.174377,586.296753 971.982117,589.440491 
	C970.164490,596.190247 964.850586,594.676697 960.342834,594.979187 
z"/>
    <path fill="#EF6507" opacity="1.000000" stroke="none" 
	d="
M980.542542,583.845032 
	C984.860901,584.062317 986.761658,586.975769 988.084839,590.964783 
	C985.436951,593.707764 982.752075,596.060730 979.642395,598.785889 
	C984.089783,604.231873 988.518738,609.655273 993.060913,615.386902 
	C991.133240,619.415466 989.092346,623.135803 986.595032,627.017273 
	C984.392578,624.848572 982.646545,622.518738 981.102905,619.897705 
	C982.009949,617.783081 983.575500,615.725830 983.162781,614.205688 
	C982.793396,612.845276 980.342590,611.679749 978.606079,611.246887 
	C977.930542,611.078430 976.696167,613.151489 975.424438,614.036377 
	C972.884155,611.116028 970.635864,608.362793 968.459900,605.698242 
	C958.224976,610.835754 955.212708,616.787964 957.345337,627.002197 
	C955.400208,626.205627 953.141968,625.784363 951.603394,624.500549 
	C950.232910,623.357056 949.213928,621.350464 948.845642,619.559143 
	C948.380920,617.298523 948.733521,614.869873 948.733521,612.513794 
	C947.872620,612.378723 947.011658,612.243652 946.150757,612.108582 
	C945.436951,614.178772 944.396545,616.200989 944.084167,618.330078 
	C943.588928,621.705811 943.580505,625.152893 943.066040,628.767334 
	C939.278748,618.148254 943.711060,609.876831 951.378479,602.781799 
	C954.150818,600.216309 957.297363,598.055176 960.307983,595.344360 
	C964.850586,594.676697 970.164490,596.190247 972.336243,589.405823 
	C975.311523,587.279480 977.927063,585.562256 980.542542,583.845032 
z"/>
    <path fill="#EAE5DE" opacity="1.000000" stroke="none" 
	d="
M838.156494,561.013306 
	C838.158020,563.582397 838.158020,565.709290 838.158020,568.000854 
	C832.968872,568.000854 828.190857,568.000854 822.961304,568.000854 
	C822.961304,563.499329 822.961304,558.967773 822.961304,554.248657 
	C827.897644,554.248657 832.691528,554.248657 838.154907,554.248657 
	C838.154907,556.400940 838.154907,558.486023 838.156494,561.013306 
z"/>
    <path fill="#EAE5DE" opacity="1.000000" stroke="none" 
	d="
M578.748535,579.548706 
	C576.041138,580.208496 573.012756,580.830383 569.965698,580.942200 
	C567.368408,581.037415 565.962769,581.622070 565.974731,584.591187 
	C566.051208,603.563721 566.000854,622.536804 566.050049,641.509521 
	C566.052979,642.634399 566.557190,643.757996 566.912720,645.270203 
	C566.040161,644.976990 564.251587,644.301575 564.246887,643.613708 
	C564.099182,622.371216 564.126160,601.127502 564.126160,579.289673 
	C569.205566,579.289673 573.812500,579.289673 578.748535,579.548706 
z"/>
    <path fill="#EAE5DE" opacity="1.000000" stroke="none" 
	d="
M578.378540,645.548340 
	C577.998535,634.586060 577.980164,623.652039 578.015198,612.718140 
	C578.019836,611.268372 578.292297,609.819031 578.462708,608.372131 
	C578.468994,608.319031 578.718201,608.244263 578.837341,608.267212 
	C578.992737,608.297180 579.131165,608.414795 579.475342,608.779053 
	C579.677734,620.007874 579.711121,630.952393 579.644836,641.896301 
	C579.637451,643.124817 579.066467,644.349976 578.378540,645.548340 
z"/>
    <path fill="#EAE5DE" opacity="1.000000" stroke="none" 
	d="
M701.177002,639.253906 
	C701.963013,639.422791 702.910217,639.853210 703.927979,640.613892 
	C703.111816,640.467957 702.225037,639.991699 701.177002,639.253906 
z"/>
    <path fill="#EAE5DE" opacity="1.000000" stroke="none" 
	d="
M580.290222,605.824219 
	C580.149231,605.385437 580.201660,604.734253 580.523010,604.015625 
	C580.689209,604.502747 580.586426,605.057251 580.290222,605.824219 
z"/>
    <path fill="#030100" opacity="1.000000" stroke="none" 
	d="
M896.696533,603.721313 
	C896.954834,609.064270 897.700745,614.093262 897.096924,618.954590 
	C895.973694,627.997498 889.386841,633.499451 880.484314,633.797668 
	C872.256836,634.073425 865.367249,629.094788 863.642700,620.503357 
	C862.685303,615.733582 862.586548,610.505859 863.435608,605.721497 
	C864.954102,597.165161 871.339294,591.593628 878.842773,590.946350 
	C886.789917,590.260864 892.826660,594.477295 896.696533,603.721313 
z"/>
    <path fill="#030100" opacity="1.000000" stroke="none" 
	d="
M523.890259,590.913513 
	C532.457825,591.699036 537.857361,596.339233 539.323730,604.025818 
	C540.411377,609.726990 540.282776,615.977417 539.195374,621.697998 
	C537.752380,629.289124 531.120667,633.871826 523.633972,634.085022 
	C515.766541,634.309021 509.845856,630.395752 507.070496,622.948730 
	C504.662964,616.488831 504.524506,609.900024 506.650787,603.346130 
	C509.181763,595.544922 514.741211,591.509094 523.890259,590.913513 
z"/>
    <path fill="#030100" opacity="1.000000" stroke="none" 
	d="
M1140.128906,599.314819 
	C1144.334106,592.801147 1150.025513,590.073669 1157.325317,591.114990 
	C1164.785889,592.179321 1168.977661,597.060120 1171.117798,603.874268 
	C1173.572998,611.691528 1173.083374,619.308960 1168.678955,626.405273 
	C1164.828491,632.609131 1158.984497,634.956482 1152.019409,633.841980 
	C1145.119507,632.737915 1139.918579,628.778564 1138.076416,621.886719 
	C1136.070923,614.383789 1135.791260,606.756897 1140.128906,599.314819 
z"/>
    <path fill="#030100" opacity="1.000000" stroke="none" 
	d="
M980.900513,620.188904 
	C982.646545,622.518738 984.392578,624.848572 986.424072,627.374146 
	C980.932556,636.524231 965.431824,636.466187 957.565063,627.231873 
	C955.212708,616.787964 958.224976,610.835754 968.459900,605.698242 
	C970.635864,608.362793 972.884155,611.116028 975.430542,614.012207 
	C975.728638,614.155212 975.728760,614.189880 975.806152,614.528564 
	C976.533997,615.463074 977.184448,616.058838 977.926025,616.936279 
	C978.978271,618.208313 979.939392,619.198608 980.900513,620.188904 
z"/>
    <path fill="#030100" opacity="1.000000" stroke="none" 
	d="
M980.661987,583.474670 
	C977.927063,585.562256 975.311523,587.279480 972.341919,589.031372 
	C970.174377,586.296753 968.045837,583.679565 966.619141,580.723633 
	C964.304138,575.927368 965.420837,571.121216 969.139709,568.665955 
	C972.885193,566.193176 976.751892,566.417908 980.296631,569.073120 
	C983.539368,571.502197 984.082092,576.221130 981.923401,580.908020 
	C981.578674,581.656677 981.163879,582.373047 980.661987,583.474670 
z"/>
    <path fill="#E76209" opacity="1.000000" stroke="none" 
	d="
M981.102905,619.897705 
	C979.939392,619.198608 978.978271,618.208313 977.927612,616.544617 
	C977.134949,615.310791 976.431885,614.750366 975.728760,614.189880 
	C975.728760,614.189880 975.728638,614.155212 975.722534,614.179382 
	C976.696167,613.151489 977.930542,611.078430 978.606079,611.246887 
	C980.342590,611.679749 982.793396,612.845276 983.162781,614.205688 
	C983.575500,615.725830 982.009949,617.783081 981.102905,619.897705 
z"/>
    <path fill="#EF6507" opacity="1.000000" stroke="none" 
	d="
M975.806152,614.528564 
	C976.431885,614.750366 977.134949,615.310791 977.836426,616.262939 
	C977.184448,616.058838 976.533997,615.463074 975.806152,614.528564 
z"/>
  </g>
</svg>
